inDegrees=yes
name=ik_S44_A13_T01
DataType=double
version=3
OpenSimVersion=4.3-2021-08-27-4bc7ad9
endheader
time	pelvis_tilt	pelvis_list	pelvis_rotation	pelvis_tx	pelvis_ty	pelvis_tz	hip_flexion_r	hip_adduction_r	hip_rotation_r	knee_angle_r	knee_angle_r_beta	ankle_angle_r	subtalar_angle_r	mtp_angle_r	hip_flexion_l	hip_adduction_l	hip_rotation_l	knee_angle_l	knee_angle_l_beta	ankle_angle_l	subtalar_angle_l	mtp_angle_l	lumbar_extension	lumbar_bending	lumbar_rotation	arm_flex_r	arm_add_r	arm_rot_r	elbow_flex_r	pro_sup_r	wrist_flex_r	wrist_dev_r	arm_flex_l	arm_add_l	arm_rot_l	elbow_flex_l	pro_sup_l	wrist_flex_l	wrist_dev_l
0	0	0	0	0	0.9399999999999999	0	0	0	0	0	0	0	0	0	0	0	0	0	0	0	0	0	0	0	0	0	0	0	0	89.99999999963507	0	0	0	0	0	0	89.99999999869995	0	0
0.02	0.2396900362231109	-0.4868110292002075	23.75964001566343	0	0.9399999999999999	0	3.503443876851518	-1.622386529337872	-1.175618093833079	5.266624909600653	0.0919199451400801	0	0	0	3.503443876851518	-1.622386529337872	-1.175618093833079	5.266624909600653	0.0919199451400801	0	0	0	0.8450597984079619	0.07699830820841856	6.948388636713293	16.59722601792767	3.871487792975564	17.29780897778131	3.725217894267296	145.0547179336299	0	0	17.66067295136575	6.144589441846315	21.72248727431194	1.52485553636637	156.6095006456636	0	0
0.04	0.237164725152693	-0.4820070571001652	23.8356494026354	0	0.9399999999999999	0	4.454743798749191	-2.040240461547423	-1.512287155466875	6.166214586523948	0.1076207469193437	0	0	0	4.454743798749191	-2.040240461547423	-1.512287155466875	6.166214586523948	0.1076207469193437	0	0	0	0.8333969554137682	0.07120834371908392	6.890512652696489	16.61667159283165	3.890728596069043	17.34657783905904	3.696443110557787	144.9613698712638	0	0	17.65630672538948	6.14212444642656	21.71576188778515	1.538963012897291	156.592552551347	0	0
0.06	0.2274437550731127	-0.4794132189419195	23.83969591758754	0	0.9399999999999999	0	4.561857834987321	-2.085445885342511	-1.550036731323882	6.258985133351191	0.1092398984103546	0	0	0	4.561857834987321	-2.085445885342511	-1.550036731323882	6.258985133351191	0.1092398984103546	0	0	0	0.8240728276659237	0.07633049683407941	6.878084322005645	16.62316869301892	3.88145381232331	17.36082667232806	3.692636723530041	144.9134350792133	0	0	17.63702083656561	6.146674222715133	21.74225275361068	1.544269962374059	156.5270267270174	0	0
0.08	0.2287107621780286	-0.4787024924684989	23.85964034918533	0	0.9399999999999999	0	4.692989573913083	-2.138470813422039	-1.596160324485892	6.364823798899412	0.1110871316000882	0	0	0	4.692989573913083	-2.138470813422039	-1.596160324485892	6.364823798899412	0.1110871316000882	0	0	0	0.8237316681873225	0.0749618956431678	6.866063949777955	16.60003238224808	3.899487785724479	17.45407928664545	3.663792519003985	144.8099877666437	0	0	17.60933843175069	6.151593751388882	21.77488570408697	1.505863746870965	156.4518272868499	0	0
0.1	0.2252315304600832	-0.4777703245785281	23.86438757791302	0	0.9399999999999999	0	4.810472680559772	-2.189240843021764	-1.637219496902097	6.474963321139673	0.1130094288997543	0	0	0	4.810472680559772	-2.189240843021764	-1.637219496902097	6.474963321139673	0.1130094288997543	0	0	0	0.8192912887031131	0.07623301950654759	6.855443842328057	16.57886567160934	3.92735038153975	17.47638711033821	3.666441423225133	144.7832803110512	0	0	17.60258672523582	6.152556160888122	21.75028052519519	1.565774526094443	156.4622872982042	0	0
0.12	0.2279558579142414	-0.4767723135131789	23.86563131705907	0	0.9399999999999999	0	4.866172348384984	-2.216143198862461	-1.656746468679664	6.536130001632467	0.1140769888668689	0	0	0	4.866172348384984	-2.216143198862461	-1.656746468679664	6.536130001632467	0.1140769888668689	0	0	0	0.8216566232165115	0.07519881695541092	6.853529919273133	16.55518261141638	3.93495240294742	17.48322698392235	3.641894882878911	144.8322860750349	0	0	17.57239990176366	6.1508235243985	21.76900855396683	1.576918472638116	156.4916531287834	0	0
0.14	0.2294716061834143	-0.4746367812388266	23.88434521062545	0	0.9399999999999999	0	5.017307332356954	-2.27817115374906	-1.709384096682561	6.667285930889534	0.1163660916659175	0	0	0	5.017307332356954	-2.27817115374906	-1.709384096682561	6.667285930889534	0.1163660916659175	0	0	0	0.8219708871283251	0.07460235572386453	6.837219102865298	16.54196476430919	3.939243764363531	17.52652655338058	3.639854152149731	144.7837047495615	0	0	17.57541692559972	6.156037109775376	21.78415336675454	1.557218140906236	156.492274564548	0	0
0.16	0.2287160216709534	-0.4704141896780056	23.94105742767163	0	0.9399999999999999	0	5.832593102524164	-2.623338575200323	-1.991272573840389	7.451052207610632	0.1300453937607976	0	0	0	5.832593102524164	-2.623338575200323	-1.991272573840389	7.451052207610632	0.1300453937607976	0	0	0	0.8135475107788306	0.06800319308037017	6.777787445619337	16.54227566499302	3.952823263860565	17.60778875818292	3.625483716882751	144.7632184663635	0	0	17.56823547209109	6.154622028621424	21.74442172515905	1.583217293340935	156.544963425564	0	0
0.18	0.2341178311633906	-0.4673790612680935	23.95122521919909	0	0.9399999999999999	0	5.940213876072819	-2.665347432868196	-2.028224420381294	7.542025834470168	0.1316331830819773	0	0	0	5.940213876072819	-2.665347432868196	-2.028224420381294	7.542025834470168	0.1316331830819773	0	0	0	0.818225611203813	0.0673672737561426	6.767552942307951	16.52842878216671	3.953784710879095	17.63431878045636	3.608253179390789	144.7831555823401	0	0	17.55120701157193	6.154481995467596	21.7538194829574	1.531334680351542	156.5005948890579	0	0
0.2	0.2393098328733009	-0.4648434553324822	23.95923739128981	0	0.9399999999999999	0	6.086884020766135	-2.727468019720701	-2.078321603001371	7.688591301817199	0.1341912330569072	0	0	0	6.086884020766135	-2.727468019720701	-2.078321603001371	7.688591301817199	0.1341912330569072	0	0	0	0.8219091983222124	0.0664260842698338	6.757632475960098	16.49307878075294	3.95422098183243	17.60914157005243	3.653113217221964	144.8541142136389	0	0	17.53002909099382	6.154597678808857	21.75138653391362	1.576068786361453	156.4714430247833	0	0
0.22	0.2328610185662997	-0.4661780832901043	23.981211179353	0	0.9399999999999999	0	6.193635942913794	-2.768802718950776	-2.114746289732663	7.780052274377464	0.13578752816516	0	0	0	6.193635942913794	-2.768802718950776	-2.114746289732663	7.780052274377464	0.13578752816516	0	0	0	0.8138923939945323	0.06665253678307601	6.739930548345586	16.50363683291932	3.961058150329974	17.56890004363714	3.639717983190245	144.9426768527221	0	0	17.56885227583121	6.150171790096899	21.68385178440881	1.539409374495311	156.507466991318	0	0
0.24	0.2345586399038231	-0.4641311356423142	23.99077321308117	0	0.9399999999999999	0	6.295173902831706	-2.808807758347776	-2.1494151424106	7.869397289961845	0.1373468928573531	0	0	0	6.295173902831706	-2.808807758347776	-2.1494151424106	7.869397289961845	0.1373468928573531	0	0	0	0.8148613817974159	0.06684227091725828	6.732451941065727	16.49727982405762	3.962981673661543	17.59553499861265	3.621264536323413	144.9264382348968	0	0	17.53525675241955	6.134528598460002	21.66527029732753	1.523923844806488	156.4592242532123	0	0
0.26	0.2005487358963551	-0.4746112244063244	24.05445168152303	0	0.9399999999999999	0	6.425477110364223	-2.860701238423536	-2.193768440715719	7.987977750240411	0.1394165123177444	0	0	0	6.425477110364223	-2.860701238423536	-2.193768440715719	7.987977750240411	0.1394165123177444	0	0	0	0.7779457593050323	0.0701036201216159	6.75037904922992	16.54847252025761	3.945350125224758	17.60025011141278	3.643243898287843	144.8591975017162	0	0	17.5967074475873	6.165032579637925	21.71622370473811	1.553658066312383	156.4141651014519	0	0
0.28	0.1979804957777712	-0.4750831192505836	24.06203329813981	0	0.9399999999999999	0	6.510946948750975	-2.895141155477177	-2.222916452369388	8.066346356150312	0.1407843025210701	0	0	0	6.510946948750975	-2.895141155477177	-2.222916452369388	8.066346356150312	0.1407843025210701	0	0	0	0.7742337591523719	0.06993121631015424	6.746639057694982	16.54389050312918	3.947735948725637	17.60533809134743	3.641688357145862	144.8587316890086	0	0	17.59143675283682	6.166432036769921	21.70080849265503	1.559916811804621	156.4251455972247	0	0
0.3	0.1920199529530378	-0.4746254252866859	24.1583805424783	0	0.9399999999999999	0	6.632019509343379	-2.942308297827111	-2.263861988890099	8.175383393540089	0.1426873578301419	0	0	0	6.632019509343379	-2.942308297827111	-2.263861988890099	8.175383393540089	0.1426873578301419	0	0	0	0.767582042291115	0.0718756952388675	6.769371111733594	16.5707381216196	3.899477060948889	17.45698540902097	3.648272076405946	144.8825796436836	0	0	17.56881946153077	6.207240375773985	21.80844830422312	1.573475787095025	156.4423548362585	0	0
0.32	0.1914547779479542	-0.474929774043603	24.18069225722413	0	0.9399999999999999	0	6.714254131197309	-2.975546547466068	-2.291777084275611	8.252755634798604	0.1440377581897503	0	0	0	6.714254131197309	-2.975546547466068	-2.291777084275611	8.252755634798604	0.1440377581897503	0	0	0	0.7659226266724306	0.07107443109552265	6.777171995426085	16.57911587397724	3.897063157427458	17.39871636176057	3.644806086850649	144.9168936233303	0	0	17.54111549569848	6.20854832322282	21.84858286218028	1.586522554868555	156.4235769446817	0	0
0.34	0.1883563563849144	-0.4754344511348986	24.19647878492155	0	0.9399999999999999	0	6.797918723817597	-3.009393965252018	-2.320163140537615	8.331722686263426	0.1454159932384033	0	0	0	6.797918723817597	-3.009393965252018	-2.320163140537615	8.331722686263426	0.1454159932384033	0	0	0	0.761726030763918	0.07124790188118735	6.780978996497979	16.58656561885993	3.891454546191142	17.37525474181956	3.640623503138483	144.9081382114331	0	0	17.5299839773692	6.225089367563225	21.86854365464814	1.593120293453338	156.3847570899582	0	0
0.36	0.1865761407884149	-0.4803920507860899	24.21511916151332	0	0.9399999999999999	0	6.870898966685362	-3.039105345656024	-2.344955849546266	8.40078594071062	0.1466213744206495	0	0	0	6.870898966685362	-3.039105345656024	-2.344955849546266	8.40078594071062	0.1466213744206495	0	0	0	0.7571707466094979	0.06686992863400103	6.787769072206304	16.58247231100693	3.879500492527101	17.34872481894422	3.641917169077871	144.8940898680636	0	0	17.53092018118108	6.22966210317878	21.90225286447547	1.582242615035751	156.3829268017796	0	0
